<?xml version="1.0" encoding="utf-8"?>
<!-- Generator: Adobe Illustrator 16.0.0, SVG Export Plug-In . SVG Version: 6.00 Build 0)  -->
<!DOCTYPE svg PUBLIC "-//W3C//DTD SVG 1.1//EN" "http://www.w3.org/Graphics/SVG/1.1/DTD/svg11.dtd">
<svg version="1.1" id="Layer_1" xmlns="http://www.w3.org/2000/svg" xmlns:xlink="http://www.w3.org/1999/xlink" x="0px" y="0px"
	 width="512px" height="512px" viewBox="-247 -247 512 512" enable-background="new -247 -247 512 512" xml:space="preserve">
<path fill="#009BDE" d="M169,51.295h-0.098C189.176,20.858,201-15.688,201-55c0-106.038-85.963-192-192-192
	c-106.038,0-192,85.961-192,192c0,41.196,12.98,79.357,35.065,110.629l130.278,195.028c0.079,0.12,0.158,0.239,0.238,0.357
	l0.114,0.171h0.007c5.772,8.33,15.395,13.79,26.297,13.79s20.524-5.46,26.296-13.79h0.008l0.116-0.174
	c0.076-0.112,0.151-0.226,0.227-0.338L169,51.295z M9-150.999c53.019,0,96,42.98,96,96c0,53.018-42.981,96-96,96
	c-53.019,0-96-42.981-96-96C-87-108.019-44.019-150.999,9-150.999z"/>
</svg>
